<svg width="2500" height="2500" viewBox="0 0 2500 2500" fill="none" xmlns="http://www.w3.org/2000/svg">
<path d="M2005.33 1761.85C2005.33 1745.52 2007.78 1731.28 2012.68 1719.15C2017.81 1706.78 2024.46 1696.52 2032.63 1688.35C2040.8 1680.18 2050.13 1674 2060.63 1669.8C2071.36 1665.6 2082.33 1663.5 2093.53 1663.5C2119.66 1663.5 2140.31 1671.55 2155.48 1687.65C2170.65 1703.52 2178.23 1726.97 2178.23 1758C2178.23 1761.03 2178.11 1764.42 2177.88 1768.15C2177.65 1771.65 2177.41 1774.8 2177.18 1777.6H2058.88C2060.05 1788.33 2065.06 1796.85 2073.93 1803.15C2082.8 1809.45 2094.7 1812.6 2109.63 1812.6C2119.2 1812.6 2128.53 1811.78 2137.63 1810.15C2146.96 1808.28 2154.55 1806.07 2160.38 1803.5L2167.38 1845.85C2164.58 1847.25 2160.85 1848.65 2156.18 1850.05C2151.51 1851.45 2146.26 1852.62 2140.43 1853.55C2134.83 1854.72 2128.76 1855.65 2122.23 1856.35C2115.7 1857.05 2109.16 1857.4 2102.63 1857.4C2086.06 1857.4 2071.6 1854.95 2059.23 1850.05C2047.1 1845.15 2036.95 1838.5 2028.78 1830.1C2020.85 1821.47 2014.9 1811.32 2010.93 1799.65C2007.2 1787.98 2005.33 1775.38 2005.33 1761.85ZM2127.83 1741.9C2127.6 1737.47 2126.78 1733.15 2125.38 1728.95C2124.21 1724.75 2122.23 1721.02 2119.43 1717.75C2116.86 1714.48 2113.48 1711.8 2109.28 1709.7C2105.31 1707.6 2100.3 1706.55 2094.23 1706.55C2088.4 1706.55 2083.38 1707.6 2079.18 1709.7C2074.98 1711.57 2071.48 1714.13 2068.68 1717.4C2065.88 1720.67 2063.66 1724.52 2062.03 1728.95C2060.63 1733.15 2059.58 1737.47 2058.88 1741.9H2127.83Z" fill="#15C188"/>
<path d="M1811.48 1674.7C1820.34 1672.13 1831.78 1669.8 1845.78 1667.7C1859.78 1665.36 1874.48 1664.2 1889.88 1664.2C1905.51 1664.2 1918.46 1666.3 1928.73 1670.5C1939.23 1674.46 1947.51 1680.18 1953.58 1687.65C1959.64 1695.11 1963.96 1703.98 1966.53 1714.25C1969.09 1724.51 1970.38 1735.95 1970.38 1748.55V1852.5H1918.23V1754.85C1918.23 1738.05 1916.01 1726.15 1911.58 1719.15C1907.14 1712.15 1898.86 1708.65 1886.73 1708.65C1882.99 1708.65 1879.03 1708.88 1874.83 1709.35C1870.63 1709.58 1866.89 1709.93 1863.63 1710.4V1852.5H1811.48V1674.7Z" fill="#15C188"/>
<path d="M1765.95 1852.5H1713.8V1668.4H1765.95V1852.5ZM1770.85 1615.2C1770.85 1624.77 1767.7 1632.35 1761.4 1637.95C1755.34 1643.32 1748.1 1646 1739.7 1646C1731.3 1646 1723.95 1643.32 1717.65 1637.95C1711.59 1632.35 1708.55 1624.77 1708.55 1615.2C1708.55 1605.63 1711.59 1598.17 1717.65 1592.8C1723.95 1587.2 1731.3 1584.4 1739.7 1584.4C1748.1 1584.4 1755.34 1587.2 1761.4 1592.8C1767.7 1598.17 1770.85 1605.63 1770.85 1615.2Z" fill="#15C188"/>
<path d="M1680.06 1856C1664.9 1855.77 1652.53 1854.13 1642.96 1851.1C1633.63 1848.07 1626.16 1843.87 1620.56 1838.5C1615.2 1832.9 1611.46 1826.25 1609.36 1818.55C1607.5 1810.62 1606.56 1801.75 1606.56 1791.95V1589.3L1658.71 1580.9V1781.45C1658.71 1786.12 1659.06 1790.32 1659.76 1794.05C1660.46 1797.78 1661.75 1800.93 1663.61 1803.5C1665.71 1806.07 1668.63 1808.17 1672.36 1809.8C1676.1 1811.43 1681.11 1812.48 1687.41 1812.95L1680.06 1856Z" fill="#15C188"/>
<path d="M1403.96 1674.7C1412.83 1672.13 1424.26 1669.8 1438.26 1667.7C1452.26 1665.36 1466.96 1664.2 1482.36 1664.2C1497.99 1664.2 1510.94 1666.3 1521.21 1670.5C1531.71 1674.46 1539.99 1680.18 1546.06 1687.65C1552.13 1695.11 1556.44 1703.98 1559.01 1714.25C1561.58 1724.51 1562.86 1735.95 1562.86 1748.55V1852.5H1510.71V1754.85C1510.71 1738.05 1508.49 1726.15 1504.06 1719.15C1499.63 1712.15 1491.34 1708.65 1479.21 1708.65C1475.48 1708.65 1471.51 1708.88 1467.31 1709.35C1463.11 1709.58 1459.38 1709.93 1456.11 1710.4V1852.5H1403.96V1674.7Z" fill="#15C188"/>
<path d="M1367.06 1760.1C1367.06 1774.57 1364.96 1787.87 1360.76 1800C1356.56 1811.9 1350.49 1822.17 1342.56 1830.8C1334.63 1839.2 1325.06 1845.73 1313.86 1850.4C1302.89 1855.07 1290.53 1857.4 1276.76 1857.4C1263.23 1857.4 1250.86 1855.07 1239.66 1850.4C1228.69 1845.73 1219.24 1839.2 1211.31 1830.8C1203.38 1822.17 1197.19 1811.9 1192.76 1800C1188.33 1787.87 1186.11 1774.57 1186.11 1760.1C1186.11 1745.63 1188.33 1732.45 1192.76 1720.55C1197.43 1708.65 1203.73 1698.5 1211.66 1690.1C1219.83 1681.7 1229.39 1675.17 1240.36 1670.5C1251.56 1665.83 1263.69 1663.5 1276.76 1663.5C1290.06 1663.5 1302.19 1665.83 1313.16 1670.5C1324.36 1675.17 1333.93 1681.7 1341.86 1690.1C1349.79 1698.5 1355.98 1708.65 1360.41 1720.55C1364.84 1732.45 1367.06 1745.63 1367.06 1760.1ZM1313.86 1760.1C1313.86 1744 1310.59 1731.4 1304.06 1722.3C1297.76 1712.97 1288.66 1708.3 1276.76 1708.3C1264.86 1708.3 1255.64 1712.97 1249.11 1722.3C1242.58 1731.4 1239.31 1744 1239.31 1760.1C1239.31 1776.2 1242.58 1789.03 1249.11 1798.6C1255.64 1807.93 1264.86 1812.6 1276.76 1812.6C1288.66 1812.6 1297.76 1807.93 1304.06 1798.6C1310.59 1789.03 1313.86 1776.2 1313.86 1760.1Z" fill="#15C188"/>
<path d="M1075.25 1816.1C1080.39 1816.1 1085.29 1815.98 1089.95 1815.75C1094.62 1815.52 1098.35 1815.17 1101.15 1814.7V1775.15C1099.05 1774.68 1095.9 1774.22 1091.7 1773.75C1087.5 1773.28 1083.65 1773.05 1080.15 1773.05C1075.25 1773.05 1070.59 1773.4 1066.15 1774.1C1061.95 1774.57 1058.22 1775.62 1054.95 1777.25C1051.69 1778.88 1049.12 1781.1 1047.25 1783.9C1045.39 1786.7 1044.45 1790.2 1044.45 1794.4C1044.45 1802.57 1047.14 1808.28 1052.5 1811.55C1058.1 1814.58 1065.69 1816.1 1075.25 1816.1ZM1071.05 1663.5C1086.45 1663.5 1099.29 1665.25 1109.55 1668.75C1119.82 1672.25 1127.99 1677.27 1134.05 1683.8C1140.35 1690.33 1144.79 1698.27 1147.35 1707.6C1149.92 1716.93 1151.2 1727.32 1151.2 1738.75V1847.25C1143.74 1848.88 1133.35 1850.75 1120.05 1852.85C1106.75 1855.18 1090.65 1856.35 1071.75 1856.35C1059.85 1856.35 1049 1855.3 1039.2 1853.2C1029.64 1851.1 1021.35 1847.72 1014.35 1843.05C1007.35 1838.15 1001.99 1831.85 998.254 1824.15C994.521 1816.45 992.654 1807 992.654 1795.8C992.654 1785.07 994.754 1775.97 998.954 1768.5C1003.39 1761.03 1009.22 1755.08 1016.45 1750.65C1023.69 1746.22 1031.97 1743.07 1041.3 1741.2C1050.64 1739.1 1060.32 1738.05 1070.35 1738.05C1077.12 1738.05 1083.07 1738.4 1088.2 1739.1C1093.57 1739.57 1097.89 1740.27 1101.15 1741.2V1736.3C1101.15 1727.43 1098.47 1720.32 1093.1 1714.95C1087.74 1709.58 1078.4 1706.9 1065.1 1706.9C1056.24 1706.9 1047.49 1707.6 1038.85 1709C1030.22 1710.17 1022.75 1711.92 1016.45 1714.25L1009.8 1672.25C1012.84 1671.32 1016.57 1670.38 1021 1669.45C1025.67 1668.28 1030.69 1667.35 1036.05 1666.65C1041.42 1665.72 1047.02 1665.02 1052.85 1664.55C1058.92 1663.85 1064.99 1663.5 1071.05 1663.5Z" fill="#254754"/>
<path d="M966.035 1856C950.868 1855.77 938.502 1854.13 928.935 1851.1C919.602 1848.07 912.135 1843.87 906.535 1838.5C901.168 1832.9 897.435 1826.25 895.335 1818.55C893.468 1810.62 892.535 1801.75 892.535 1791.95V1589.3L944.685 1580.9V1781.45C944.685 1786.12 945.035 1790.32 945.735 1794.05C946.435 1797.78 947.718 1800.93 949.585 1803.5C951.685 1806.07 954.602 1808.17 958.335 1809.8C962.068 1811.43 967.085 1812.48 973.385 1812.95L966.035 1856Z" fill="#254754"/>
<path d="M855.638 1760.1C855.638 1774.57 853.538 1787.87 849.338 1800C845.138 1811.9 839.071 1822.17 831.138 1830.8C823.204 1839.2 813.637 1845.73 802.438 1850.4C791.471 1855.07 779.104 1857.4 765.338 1857.4C751.804 1857.4 739.438 1855.07 728.238 1850.4C717.271 1845.73 707.821 1839.2 699.888 1830.8C691.954 1822.17 685.771 1811.9 681.337 1800C676.904 1787.87 674.688 1774.57 674.688 1760.1C674.688 1745.63 676.904 1732.45 681.337 1720.55C686.004 1708.65 692.304 1698.5 700.237 1690.1C708.404 1681.7 717.971 1675.17 728.938 1670.5C740.138 1665.83 752.271 1663.5 765.338 1663.5C778.638 1663.5 790.771 1665.83 801.737 1670.5C812.937 1675.17 822.504 1681.7 830.438 1690.1C838.371 1698.5 844.554 1708.65 848.987 1720.55C853.421 1732.45 855.638 1745.63 855.638 1760.1ZM802.438 1760.1C802.438 1744 799.171 1731.4 792.638 1722.3C786.338 1712.97 777.238 1708.3 765.338 1708.3C753.438 1708.3 744.221 1712.97 737.688 1722.3C731.154 1731.4 727.888 1744 727.888 1760.1C727.888 1776.2 731.154 1789.03 737.688 1798.6C744.221 1807.93 753.438 1812.6 765.338 1812.6C777.238 1812.6 786.338 1807.93 792.638 1798.6C799.171 1789.03 802.438 1776.2 802.438 1760.1Z" fill="#254754"/>
<path d="M549.048 1734.9C554.182 1729.3 559.432 1723.47 564.798 1717.4C570.398 1711.33 575.765 1705.38 580.898 1699.55C586.032 1693.48 590.815 1687.77 595.248 1682.4C599.915 1677.03 603.882 1672.37 607.148 1668.4H669.098C656.732 1682.63 644.598 1696.28 632.698 1709.35C621.032 1722.18 608.198 1735.48 594.198 1749.25C601.198 1755.55 608.432 1763.13 615.898 1772C623.365 1780.63 630.598 1789.62 637.598 1798.95C644.598 1808.28 651.015 1817.62 656.848 1826.95C662.682 1836.28 667.582 1844.8 671.548 1852.5H611.698C607.965 1846.43 603.648 1839.78 598.748 1832.55C594.082 1825.08 589.065 1817.73 583.698 1810.5C578.332 1803.03 572.615 1795.92 566.548 1789.15C560.715 1782.38 554.882 1776.67 549.048 1772V1852.5H496.898V1589.3L549.048 1580.9V1734.9Z" fill="#254754"/>
<path d="M383.376 1815.05C392.942 1815.05 399.709 1814.11 403.676 1812.25C407.642 1810.38 409.626 1806.76 409.626 1801.4C409.626 1797.2 407.059 1793.58 401.926 1790.55C396.792 1787.28 388.976 1783.66 378.476 1779.7C370.309 1776.66 362.842 1773.51 356.076 1770.25C349.542 1766.98 343.942 1763.13 339.276 1758.7C334.609 1754.03 330.992 1748.55 328.426 1742.25C325.859 1735.95 324.576 1728.36 324.576 1719.5C324.576 1702.23 330.992 1688.58 343.826 1678.55C356.659 1668.51 374.276 1663.5 396.676 1663.5C407.876 1663.5 418.609 1664.55 428.876 1666.65C439.142 1668.51 447.309 1670.61 453.376 1672.95L444.276 1713.55C438.209 1711.45 431.559 1709.58 424.326 1707.95C417.326 1706.31 409.392 1705.5 400.526 1705.5C384.192 1705.5 376.026 1710.05 376.026 1719.15C376.026 1721.25 376.376 1723.11 377.076 1724.75C377.776 1726.38 379.176 1728.01 381.276 1729.65C383.376 1731.05 386.176 1732.68 389.676 1734.55C393.409 1736.18 398.076 1738.05 403.676 1740.15C415.109 1744.35 424.559 1748.55 432.026 1752.75C439.492 1756.71 445.326 1761.15 449.526 1766.05C453.959 1770.71 456.992 1775.96 458.626 1781.8C460.492 1787.63 461.426 1794.4 461.426 1802.1C461.426 1820.3 454.542 1834.06 440.776 1843.4C427.242 1852.73 407.992 1857.4 383.026 1857.4C366.692 1857.4 353.042 1856 342.076 1853.2C331.342 1850.4 323.876 1848.06 319.676 1846.2L328.426 1803.85C337.292 1807.35 346.392 1810.15 355.726 1812.25C365.059 1814.11 374.276 1815.05 383.376 1815.05ZM342.426 1599.45L361.676 1576.35L396.676 1603.3L431.676 1576.35L451.626 1599.45L396.676 1647.4L342.426 1599.45Z" fill="#254754"/>
<mask id="mask0_1481_4747" style="mask-type:alpha" maskUnits="userSpaceOnUse" x="871" y="458" width="758" height="884">
<path fill-rule="evenodd" clip-rule="evenodd" d="M1290.86 469.585C1265.72 454.472 1234.28 454.472 1209.14 469.585L909.953 649.443C886.143 663.757 871.582 689.483 871.582 717.238V1082.76C871.582 1110.52 886.143 1136.24 909.953 1150.56L1209.14 1330.41C1234.28 1345.53 1265.72 1345.53 1290.86 1330.41L1590.04 1150.56C1613.85 1136.24 1628.42 1110.52 1628.42 1082.76V717.238C1628.42 689.483 1613.85 663.757 1590.04 649.443L1290.86 469.585Z" fill="#15C188"/>
</mask>
<g mask="url(#mask0_1481_4747)">
<path fill-rule="evenodd" clip-rule="evenodd" d="M1290.86 469.585C1265.72 454.472 1234.28 454.472 1209.14 469.585L909.953 649.443C886.143 663.757 871.582 689.483 871.582 717.238V1082.76C871.582 1110.52 886.143 1136.24 909.953 1150.56L1209.14 1330.41C1234.28 1345.53 1265.72 1345.53 1290.86 1330.41L1590.04 1150.56C1613.85 1136.24 1628.42 1110.52 1628.42 1082.76V717.238C1628.42 689.483 1613.85 663.757 1590.04 649.443L1290.86 469.585Z" fill="#00DC9A"/>
<path d="M871.582 717.238V1082.76C871.582 1110.52 886.143 1136.24 909.953 1150.56L1209.14 1330.41C1234.28 1345.53 1265.72 1345.53 1290.86 1330.41L1424.17 1250.28V549.722L1290.86 469.585C1265.72 454.472 1234.28 454.472 1209.14 469.585L909.953 649.443C886.143 663.757 871.582 689.483 871.582 717.238Z" fill="url(#paint0_linear_1481_4747)"/>
<path d="M1075.69 549.809V1250.19L909.953 1150.56C886.143 1136.24 871.582 1110.52 871.582 1082.76V717.239C871.582 689.484 886.143 663.758 909.953 649.444L1075.69 549.809Z" fill="url(#paint1_linear_1481_4747)"/>
<path d="M976.966 609.156V1190.84L909.953 1150.56C886.143 1136.24 871.582 1110.52 871.582 1082.76V717.237C871.582 689.482 886.143 663.756 909.953 649.442L976.966 609.156Z" fill="url(#paint2_linear_1481_4747)" fill-opacity="0.8"/>
<path d="M1209.14 469.615C1234.28 454.461 1265.72 454.462 1290.86 469.616L1590.04 649.957C1613.85 664.309 1628.42 690.104 1628.42 717.934V1084.44C1628.42 1112.27 1613.85 1138.07 1590.04 1152.42L1290.86 1332.76C1265.72 1347.91 1234.28 1347.91 1209.14 1332.76L909.953 1152.42C886.143 1138.07 871.582 1112.27 871.582 1084.44V717.934C871.582 690.104 886.143 664.309 909.953 649.957L1209.14 469.615Z" fill="url(#paint3_linear_1481_4747)" fill-opacity="0.4" style="mix-blend-mode:overlay"/>
</g>
<g filter="url(#filter0_d_1481_4747)">
<path fill-rule="evenodd" clip-rule="evenodd" d="M1075.59 981.866C1075.59 981.866 1259.28 981.866 1286.54 981.866C1313.8 981.866 1335.9 1003.95 1335.9 1031.18C1335.9 1058.42 1313.8 1080.5 1286.54 1080.5L1032.82 1080.5C1001.92 1080.5 976.875 1055.48 976.875 1024.61L976.875 770.868C976.875 751.128 987.297 732.852 1004.29 722.787L1222.32 592.728C1240.08 582.213 1262.19 582.321 1279.84 593.008L1496.17 723.024C1512.91 733.153 1523.13 751.279 1523.13 770.825L1523.13 1031.18C1523.13 1058.42 1501.03 1080.5 1473.77 1080.5C1446.5 1080.5 1424.17 1058.65 1424.17 1031.42L1424.17 794.708L1250 690.208L1075.83 794.708L1075.59 981.866Z" fill="white"/>
</g>
<defs>
<filter id="filter0_d_1481_4747" x="897.708" y="508.918" width="704.583" height="653.915" filterUnits="userSpaceOnUse" color-interpolation-filters="sRGB">
<feFlood flood-opacity="0" result="BackgroundImageFix"/>
<feColorMatrix in="SourceAlpha" type="matrix" values="0 0 0 0 0 0 0 0 0 0 0 0 0 0 0 0 0 0 127 0" result="hardAlpha"/>
<feOffset dy="3.16667"/>
<feGaussianBlur stdDeviation="39.5833"/>
<feColorMatrix type="matrix" values="0 0 0 0 0 0 0 0 0 0.433333 0 0 0 0 0.327519 0 0 0 0.15 0"/>
<feBlend mode="normal" in2="BackgroundImageFix" result="effect1_dropShadow_1481_4747"/>
<feBlend mode="normal" in="SourceGraphic" in2="effect1_dropShadow_1481_4747" result="shape"/>
</filter>
<linearGradient id="paint0_linear_1481_4747" x1="1418.49" y1="826.17" x2="871.584" y2="825.123" gradientUnits="userSpaceOnUse">
<stop stop-color="#01CB8D"/>
<stop offset="1" stop-color="#00D494"/>
</linearGradient>
<linearGradient id="paint1_linear_1481_4747" x1="1075.69" y1="844.584" x2="871.582" y2="844.584" gradientUnits="userSpaceOnUse">
<stop stop-color="#01B384"/>
<stop offset="1" stop-color="#01C68E"/>
</linearGradient>
<linearGradient id="paint2_linear_1481_4747" x1="976.966" y1="919.001" x2="871.582" y2="918.994" gradientUnits="userSpaceOnUse">
<stop stop-color="#02A882"/>
<stop offset="1" stop-color="#01BA8A"/>
</linearGradient>
<linearGradient id="paint3_linear_1481_4747" x1="1539.8" y1="603.841" x2="1026.19" y2="1190.29" gradientUnits="userSpaceOnUse">
<stop stop-color="#F1FF9B"/>
<stop offset="0.543578" stop-color="#E4FFAA" stop-opacity="0"/>
</linearGradient>
</defs>
</svg>
